<svg width="696" height="525" viewBox="0 0 696 525" fill="none" xmlns="http://www.w3.org/2000/svg">
<path d="M540.305 91.5969H350.854V368.344H540.305V91.5969Z" fill="#E6E6E6"/>
<path d="M228.462 230.319C229.833 227.119 230.229 223.585 229.603 220.16C228.976 216.736 227.353 213.572 224.938 211.066C222.524 208.56 219.424 206.823 216.027 206.072C212.63 205.321 209.087 205.589 205.842 206.844C190.965 212.73 175.148 223.544 166.483 243.414C146.995 287.977 157.522 311.329 176.923 316.153C196.324 320.977 221.398 246.827 221.398 246.827L228.462 230.319Z" fill="#68E1FD"/>
<path opacity="0.2" d="M228.462 230.319C229.833 227.119 230.229 223.585 229.603 220.16C228.976 216.736 227.353 213.572 224.938 211.066C222.524 208.56 219.424 206.823 216.027 206.072C212.63 205.321 209.087 205.589 205.842 206.844C190.965 212.73 175.148 223.544 166.483 243.414C146.995 287.977 157.522 311.329 176.923 316.153C196.324 320.977 221.398 246.827 221.398 246.827L228.462 230.319Z" fill="white"/>
<path opacity="0.45" d="M340.901 480.247C479.944 480.247 592.661 468.794 592.661 454.666C592.661 440.538 479.944 429.084 340.901 429.084C201.857 429.084 89.1402 440.538 89.1402 454.666C89.1402 468.794 201.857 480.247 340.901 480.247Z" fill="#E6E6E6"/>
<path opacity="0.58" d="M154.129 437.565C154.129 437.565 139.705 433.682 136.503 420.255C136.503 420.255 158.827 415.658 159.558 438.732L154.129 437.565Z" fill="#68E1FD"/>
<path opacity="0.73" d="M155.887 436.12C155.887 436.12 145.76 420.221 154.564 405.297C154.564 405.297 171.581 416.006 164.117 436.12H155.887Z" fill="#68E1FD"/>
<path d="M158.497 436.12C158.497 436.12 163.717 419.263 179.812 416.006C179.812 416.006 182.874 426.925 169.476 436.12H158.497Z" fill="#68E1FD"/>
<path d="M148.039 435.789L151.032 455.78H169.441L172.069 435.789H148.039Z" fill="#24285B"/>
<path d="M228.74 446.551C228.74 446.551 226.2 453.604 219.832 454.143C213.463 454.683 211.793 460.918 217.517 462.537C223.242 464.157 238.015 456.79 238.015 456.79L237.597 447.596L228.74 446.551Z" fill="#68E1FD"/>
<path d="M281.027 446.551C281.027 446.551 283.568 453.604 289.936 454.143C296.305 454.683 297.975 460.918 292.25 462.537C286.526 464.157 271.753 456.79 271.753 456.79L272.171 447.596L281.027 446.551Z" fill="#68E1FD"/>
<path d="M214.02 165.52C269.709 165.52 314.853 160.219 314.853 153.679C314.853 147.139 269.709 141.837 214.02 141.837C158.331 141.837 113.187 147.139 113.187 153.679C113.187 160.219 158.331 165.52 214.02 165.52Z" fill="#FFD200"/>
<path opacity="0.08" d="M214.02 165.52C269.709 165.52 314.853 160.219 314.853 153.679C314.853 147.139 269.709 141.837 214.02 141.837C158.331 141.837 113.187 147.139 113.187 153.679C113.187 160.219 158.331 165.52 214.02 165.52Z" fill="black"/>
<path d="M251.343 162.629C251.343 162.629 255.536 171.511 256.232 178.18C256.302 178.827 256.244 179.481 256.06 180.104C255.876 180.728 255.571 181.309 255.162 181.814C254.752 182.319 254.247 182.738 253.676 183.047C253.104 183.356 252.477 183.548 251.83 183.614C249.762 183.952 247.64 183.684 245.72 182.844C243.8 182.004 242.164 180.626 241.007 178.877L235.283 171.911C234.285 170.386 233.786 168.587 233.855 166.765C233.924 164.943 234.556 163.188 235.666 161.741C239.459 156.012 249.064 157.092 251.343 162.629Z" fill="#F4A28C"/>
<path d="M237.44 173.461L235.126 205.556L252.892 205.573L247.585 182.795L237.44 173.461Z" fill="#F4A28C"/>
<path d="M249.203 163.866C246.409 165.025 243.489 165.855 240.503 166.339C241.784 167.289 242.759 168.592 243.31 170.09C243.86 171.587 243.961 173.213 243.6 174.767C243.271 176.268 242.432 177.609 241.227 178.562C240.021 179.514 238.524 180.019 236.988 179.991L232.76 168.098C232.112 166.411 231.932 164.58 232.238 162.799C232.545 161.018 233.326 159.353 234.5 157.98C235.503 156.751 236.584 155.587 237.736 154.497C240.642 151.885 246.436 152.303 248.663 148.872C248.887 148.53 249.195 148.252 249.558 148.064C249.921 147.877 250.327 147.787 250.735 147.803C251.143 147.818 251.54 147.94 251.888 148.155C252.235 148.369 252.521 148.671 252.718 149.029C254.579 152.425 256.041 158.328 251.9 162.107C251.102 162.836 250.191 163.43 249.203 163.866V163.866Z" fill="#24285B"/>
<path d="M244.47 174.14C244.47 174.14 243.095 170.657 240.538 171.876C237.98 173.095 239.929 178.233 243.722 177.362L244.47 174.14Z" fill="#F4A28C"/>
<path d="M253.692 168.359L257.52 170.953C257.758 171.093 257.956 171.293 258.093 171.533C258.23 171.773 258.303 172.044 258.303 172.32C258.303 172.597 258.23 172.868 258.093 173.108C257.956 173.348 257.758 173.548 257.52 173.688L254.249 175.655L253.692 168.359Z" fill="#F4A28C"/>
<path opacity="0.31" d="M247.724 183.439C245.584 183.054 243.588 182.097 241.947 180.671C241.947 180.671 240.799 187.636 249.255 189.97L247.724 183.439Z" fill="#CE8172"/>
<path opacity="0.08" d="M257.52 170.953L253.657 168.359C252.457 165.067 251.308 162.612 251.308 162.612L251.778 162.281C255.919 158.502 254.458 152.599 252.596 149.203C252.399 148.845 252.113 148.544 251.766 148.329C251.418 148.114 251.021 147.992 250.613 147.977C250.205 147.961 249.8 148.051 249.437 148.239C249.074 148.426 248.765 148.704 248.542 149.046C246.332 152.529 240.52 152.059 237.614 154.671C236.462 155.761 235.381 156.925 234.378 158.154C233.219 159.536 232.453 161.205 232.162 162.986C231.871 164.766 232.066 166.592 232.725 168.272L236.953 180.166L235.109 205.66H252.874L248.472 186.766L247.706 183.527C249.061 183.772 250.442 183.83 251.813 183.701C252.458 183.633 253.084 183.439 253.655 183.13C254.226 182.82 254.73 182.401 255.138 181.897C255.547 181.392 255.853 180.812 256.037 180.189C256.222 179.567 256.282 178.913 256.215 178.267C256.091 177.094 255.887 175.93 255.606 174.785L257.485 173.67C257.721 173.532 257.918 173.336 258.055 173.099C258.193 172.863 258.267 172.595 258.271 172.322C258.274 172.048 258.207 171.778 258.075 171.539C257.944 171.299 257.752 171.097 257.52 170.953Z" fill="black"/>
<path opacity="0.08" d="M383.74 193.679L397.66 205.869L394.18 210.588C387.93 219.103 385.279 229.738 386.802 240.192C390.282 264.328 391.256 309.675 350.836 320.629L351.793 278.051L365.8 207.767L383.74 193.679Z" fill="black"/>
<path d="M223.103 204.789H261.226C272.519 204.789 281.219 205.207 291.102 210.675C314.888 223.823 326.163 253.88 290.597 345.601H211.427C211.427 345.601 147.9 206.879 223.103 204.789Z" fill="#68E1FD"/>
<path d="M227.174 261.786C222.563 261.264 218.308 259.049 215.235 255.568C212.162 252.087 210.489 247.589 210.54 242.944V99.9035H213.533V242.944C213.465 246.914 214.906 250.762 217.565 253.71C220.223 256.658 223.9 258.486 227.853 258.826C229.956 258.971 232.067 258.683 234.053 257.978C236.04 257.273 237.861 256.167 239.403 254.728C240.945 253.289 242.175 251.549 243.017 249.615C243.858 247.68 244.294 245.593 244.296 243.484V233.906C244.294 233.708 244.331 233.511 244.405 233.327C244.479 233.144 244.589 232.977 244.728 232.836C244.867 232.695 245.033 232.583 245.216 232.506C245.398 232.43 245.594 232.391 245.792 232.391V232.391C246.191 232.395 246.571 232.557 246.852 232.841C247.132 233.124 247.289 233.507 247.289 233.906V243.484C247.286 246.044 246.748 248.576 245.712 250.917C244.675 253.258 243.162 255.357 241.269 257.08C239.376 258.802 237.145 260.11 234.718 260.921C232.291 261.731 229.722 262.026 227.174 261.786V261.786Z" fill="#24285B"/>
<path d="M216.613 51.7706C216.613 49.2604 214.579 47.2255 212.071 47.2255C209.563 47.2255 207.53 49.2604 207.53 51.7706V78.7452C207.53 81.2554 209.563 83.2903 212.071 83.2903C214.579 83.2903 216.613 81.2554 216.613 78.7452V51.7706Z" fill="#FFD200"/>
<path opacity="0.08" d="M216.613 51.7706C216.613 49.2604 214.579 47.2255 212.071 47.2255C209.563 47.2255 207.53 49.2604 207.53 51.7706V78.7452C207.53 81.2554 209.563 83.2903 212.071 83.2903C214.579 83.2903 216.613 81.2554 216.613 78.7452V51.7706Z" fill="black"/>
<path d="M314.94 153.522C314.94 153.522 299.68 67.6698 214.02 67.6523C128.36 67.6523 113.187 153.522 113.187 153.522L140.783 150.039C191.134 143.544 242.12 143.719 292.424 150.561L314.94 153.522Z" fill="#FFD200"/>
<path d="M203.319 221.298C202.682 218.945 202.948 216.439 204.066 214.273C205.183 212.107 207.071 210.438 209.357 209.596C210.025 209.315 210.743 209.171 211.467 209.174C212.192 209.177 212.908 209.326 213.574 209.612C214.24 209.898 214.841 210.315 215.343 210.839C215.844 211.363 216.234 211.982 216.491 212.661C220.458 220.044 216.839 229.152 210.314 230.214C209.033 230.377 207.738 230.06 206.678 229.324C205.617 228.587 204.867 227.484 204.572 226.226L203.319 221.298Z" fill="#F4A28C"/>
<path d="M211.427 345.601L225.121 446.603H241.86L242.817 392.236C242.941 385.548 244.869 379.018 248.398 373.338C251.926 367.657 256.924 363.037 262.862 359.967L290.58 345.601H211.427Z" fill="#24285B"/>
<path d="M290.597 345.601L285.256 446.551H267.873L252.892 359.933L290.597 345.601Z" fill="#24285B"/>
<path d="M269.7 222.447C270.004 220.075 270.865 217.809 272.211 215.834C273.558 213.858 275.352 212.229 277.447 211.08C279.542 209.93 281.879 209.293 284.267 209.219C286.656 209.146 289.027 209.639 291.189 210.658C299.75 214.785 309.146 223.022 313.809 239.409C317.151 251.156 321.266 262.669 326.128 273.871C326.771 275.322 327.837 276.545 329.186 277.381C330.535 278.216 332.104 278.624 333.688 278.553C335.272 278.481 336.798 277.933 338.067 276.98C339.335 276.027 340.286 274.713 340.796 273.21L357.796 222.9L373.282 226.104C373.282 226.104 379.459 296.318 340.97 313.332C305.979 328.813 262.74 276.431 269.7 222.447Z" fill="#68E1FD"/>
<path opacity="0.2" d="M269.7 222.447C270.004 220.075 270.865 217.809 272.211 215.834C273.558 213.858 275.352 212.229 277.447 211.08C279.542 209.93 281.879 209.293 284.267 209.219C286.656 209.146 289.027 209.639 291.189 210.658C299.75 214.785 309.146 223.022 313.809 239.409C317.151 251.156 321.266 262.669 326.128 273.871C326.771 275.322 327.837 276.545 329.186 277.381C330.535 278.216 332.104 278.624 333.688 278.553C335.272 278.481 336.798 277.933 338.067 276.98C339.335 276.027 340.286 274.713 340.796 273.21L357.796 222.9L373.282 226.104C373.282 226.104 379.459 296.318 340.97 313.332C305.979 328.813 262.74 276.431 269.7 222.447Z" fill="white"/>
<path d="M178.298 264.468L204.015 224.015L211.636 230.266L210.575 243.484C210.575 243.484 208.957 302.831 182.056 315.648L176.384 304.538C173.191 298.27 171.687 291.276 172.023 284.248C172.359 277.221 174.522 270.402 178.298 264.468V264.468Z" fill="#68E1FD"/>
<path opacity="0.2" d="M178.298 264.468L204.015 224.015L211.636 230.266L210.575 243.484C210.575 243.484 208.957 302.831 182.056 315.648L176.384 304.538C173.191 298.27 171.687 291.276 172.023 284.248C172.359 277.221 174.522 270.402 178.298 264.468V264.468Z" fill="white"/>
<path d="M360.719 223.527C360.719 223.527 361.972 218.425 369.837 212.8C377.702 207.175 386.489 215.064 373.317 226.122L360.719 223.527Z" fill="#F4A28C"/>
<path d="M390.141 195.248L374.649 184.727L357.121 210.578L372.613 221.099L390.141 195.248Z" fill="#FFD200"/>
<path opacity="0.08" d="M159.645 261.873C159.645 261.873 234.709 294.351 323.205 267.097C323.205 267.097 316.332 249.526 312.4 235.386C308.467 221.246 296.026 211.999 288.04 209.265C288.04 209.265 279.775 203.431 252.561 204.859L234.97 204.633C234.97 204.633 217.309 204.633 213.863 205.73C207.433 205.978 201.193 207.984 195.82 211.529C195.82 211.529 169.319 222.203 159.645 261.873Z" fill="black"/>
<path d="M507.697 117.422H448.955V136.578H507.697V117.422Z" fill="#C9C9C9"/>
<path opacity="0.36" d="M507.697 154.427H448.955V173.583H507.697V154.427Z" fill="#C9C9C9"/>
<path opacity="0.36" d="M507.68 205.573H382.539V335.936H507.68V205.573Z" fill="#C9C9C9"/>
<path opacity="0.08" d="M540.322 270.215H490.123V377.66H540.322V270.215Z" fill="black"/>
<path d="M425.534 143.282C424.661 143.294 423.797 143.453 422.977 143.752C422.409 141.365 421.115 139.214 419.273 137.594C417.431 135.975 415.132 134.969 412.693 134.714C412.874 133.808 412.968 132.887 412.972 131.963C413.039 130.012 412.713 128.068 412.014 126.246C411.315 124.424 410.256 122.761 408.901 121.357C407.546 119.954 405.923 118.837 404.127 118.075C402.332 117.312 400.402 116.919 398.451 116.919C396.501 116.919 394.571 117.312 392.775 118.075C390.98 118.837 389.357 119.954 388.002 121.357C386.647 122.761 385.588 124.424 384.888 126.246C384.189 128.068 383.863 130.012 383.931 131.963C383.938 132.869 384.025 133.772 384.192 134.662H383.931C380.793 134.662 377.783 135.91 375.565 138.131C373.346 140.351 372.099 143.363 372.099 146.504C372.099 149.645 373.346 152.656 375.565 154.877C377.783 157.098 380.793 158.346 383.931 158.346H425.534C427.528 158.346 429.44 157.553 430.85 156.142C432.259 154.731 433.051 152.818 433.051 150.823C433.051 148.827 432.259 146.914 430.85 145.503C429.44 144.092 427.528 143.3 425.534 143.3V143.282Z" fill="#C9C9C9"/>
<path d="M396.755 158.328L390.369 170.797L400.531 170.744L396.476 183.683L410.675 164.771L400.531 164.702L406.029 157.91L396.755 158.328Z" fill="#C9C9C9"/>
<path d="M603.971 288.621H471.731V396.067H603.971V288.621Z" fill="#F2F2F2"/>
<path d="M535.676 315.161L500.598 369.528H570.772L535.676 315.161Z" fill="#C9C9C9"/>
<path d="M538.721 331.791H532.631V352.915H538.721V331.791Z" fill="#F2F2F2"/>
<path d="M536.007 362.754C537.871 362.754 539.383 361.241 539.383 359.375C539.383 357.509 537.871 355.997 536.007 355.997C534.143 355.997 532.631 357.509 532.631 359.375C532.631 361.241 534.143 362.754 536.007 362.754Z" fill="#F2F2F2"/>
<path opacity="0.08" d="M515.231 299.732H485.443V310.406H515.231V299.732Z" fill="black"/>
</svg>
